<svg xmlns="http://www.w3.org/2000/svg" viewBox="0 0 52.19 53.42"><defs><style>.cls-1{fill:#ccc;}</style></defs><title>Img-chat-icon-Calendar</title><g id="Capa_2" data-name="Capa 2"><g id="Contenido"><g id="rjqstP"><path class="cls-1" d="M4.63,6.11c0,1.93,0,3.87,0,5.82,0,3.61,2.17,5.78,5.76,5.78,1,0,1.95,0,2.92,0a5.33,5.33,0,0,0,5.26-5.26c0-2.11,0-4.23,0-6.42h15v5.85c0,3.67,2.16,5.83,5.83,5.83h2.71a5.32,5.32,0,0,0,5.41-5.31c0-2.08,0-4.17,0-6.24,2.16-.32,4.35,1.69,4.59,4.15a10.78,10.78,0,0,1,0,1.14V48c0,3.59-1.87,5.47-5.44,5.47H5.14a4.75,4.75,0,0,1-5.13-5Q0,29.57,0,10.74A4.48,4.48,0,0,1,4.63,6.11ZM26.05,24.63H8.64c-1.79,0-2.55.76-2.55,2.53q0,9.29,0,18.56c0,1.85.72,2.58,2.6,2.58q17.36,0,34.7,0c1.88,0,2.6-.72,2.6-2.58q0-9.22,0-18.45c0-1.93-.72-2.64-2.64-2.64Z"/><path class="cls-1" d="M15,7.2c0,1.59,0,3.19,0,4.78s-.63,2.23-2.18,2.25c-1,0-1.94,0-2.91,0a1.71,1.71,0,0,1-1.81-1.85q0-5.25,0-10.51A1.7,1.7,0,0,1,10,0c1,0,2.09,0,3.12,0A1.8,1.8,0,0,1,15,2C15.05,3.73,15,5.46,15,7.2Z"/><path class="cls-1" d="M37.1,7.13c0-1.7,0-3.4,0-5.1a1.78,1.78,0,0,1,2-2c1,0,2,0,2.92,0a1.81,1.81,0,0,1,2,1.91c0,3.47,0,6.94,0,10.41a1.77,1.77,0,0,1-1.91,1.88c-1,0-2.08,0-3.12,0a1.72,1.72,0,0,1-1.86-1.9C37.08,10.59,37.1,8.86,37.1,7.13Z"/><path class="cls-1" d="M26.08,34.89h2a1.22,1.22,0,0,0,1.37-1.34c0-1.31,0-2.63,0-3.95a1.2,1.2,0,0,0-1.29-1.31c-1.36,0-2.71,0-4.06,0a1.19,1.19,0,0,0-1.31,1.29c0,1.35,0,2.7,0,4.05a1.19,1.19,0,0,0,1.34,1.26Zm10.54,10.6c.63,0,1.25,0,1.88,0A1.29,1.29,0,0,0,40,44.16c.05-1.35,0-2.71,0-4.06a1.25,1.25,0,0,0-1.36-1.28c-1.31,0-2.63,0-4,0a1.22,1.22,0,0,0-1.33,1.39c0,1.28,0,2.56,0,3.85a1.25,1.25,0,0,0,1.39,1.42ZM18.83,31.33c0-.39,0-1.12,0-1.85a1.11,1.11,0,0,0-1.18-1.19q-2.09,0-4.17,0a1.14,1.14,0,0,0-1.24,1.24c0,1.36,0,2.71,0,4.07a1.15,1.15,0,0,0,1.29,1.29h2.09C19,34.91,18.87,35.13,18.83,31.33Zm17.86,3.56h1.76c1.1,0,1.53-.39,1.57-1.47,0-1.25,0-2.5,0-3.74a1.26,1.26,0,0,0-1.35-1.39c-1.35,0-2.7,0-4.05,0a1.13,1.13,0,0,0-1.25,1.22c0,1.38,0,2.77,0,4.15a1.12,1.12,0,0,0,1.24,1.22ZM18.83,42.26c0-.66,0-1.32,0-2a1.25,1.25,0,0,0-1.37-1.45c-1.31,0-2.63,0-4,0a1.18,1.18,0,0,0-1.28,1.32c0,1.35,0,2.7,0,4.05a1.19,1.19,0,0,0,1.31,1.29c.69,0,1.39,0,2.08,0C19,45.54,18.87,45.56,18.83,42.26Zm10.6-.09c0-.66,0-1.32,0-2a1.22,1.22,0,0,0-1.27-1.35c-1.39,0-2.78,0-4.16,0a1.19,1.19,0,0,0-1.23,1.28c0,1.36,0,2.71,0,4.06a1.21,1.21,0,0,0,1.32,1.3c1.31,0,2.63,0,3.95,0a1.26,1.26,0,0,0,1.39-1.34C29.45,43.49,29.43,42.83,29.43,42.17Z"/><path class="cls-1" d="M26.08,34.89h-2a1.19,1.19,0,0,1-1.34-1.26c0-1.35,0-2.7,0-4.05a1.19,1.19,0,0,1,1.31-1.29c1.35,0,2.7,0,4.06,0a1.2,1.2,0,0,1,1.29,1.31c0,1.32,0,2.64,0,3.95a1.22,1.22,0,0,1-1.37,1.34Z"/><path class="cls-1" d="M36.62,45.49H34.75a1.25,1.25,0,0,1-1.39-1.42c0-1.29,0-2.57,0-3.85a1.22,1.22,0,0,1,1.33-1.39c1.32,0,2.64,0,4,0A1.25,1.25,0,0,1,40,40.1c0,1.35.06,2.71,0,4.06a1.29,1.29,0,0,1-1.51,1.33C37.87,45.48,37.25,45.49,36.62,45.49Z"/><path class="cls-1" d="M18.83,31.33c0,3.8.13,3.58-3.22,3.56H13.52a1.15,1.15,0,0,1-1.29-1.29c0-1.36,0-2.71,0-4.07a1.14,1.14,0,0,1,1.24-1.24q2.08,0,4.17,0a1.11,1.11,0,0,1,1.18,1.19C18.85,30.21,18.83,30.94,18.83,31.33Z"/><path class="cls-1" d="M36.69,34.89H34.61a1.12,1.12,0,0,1-1.24-1.22c0-1.38,0-2.77,0-4.15a1.13,1.13,0,0,1,1.25-1.22c1.35,0,2.7,0,4.05,0A1.26,1.26,0,0,1,40,29.68c0,1.24,0,2.49,0,3.74,0,1.08-.47,1.45-1.57,1.47Z"/><path class="cls-1" d="M18.83,42.26c0,3.3.18,3.28-3.21,3.23-.69,0-1.39,0-2.08,0a1.19,1.19,0,0,1-1.31-1.29c0-1.35,0-2.7,0-4.05a1.18,1.18,0,0,1,1.28-1.32c1.32,0,2.64,0,4,0a1.25,1.25,0,0,1,1.37,1.45C18.82,40.94,18.83,41.6,18.83,42.26Z"/><path class="cls-1" d="M29.43,42.17c0,.66,0,1.32,0,2A1.26,1.26,0,0,1,28,45.49c-1.32,0-2.64,0-3.95,0a1.21,1.21,0,0,1-1.32-1.3c0-1.35,0-2.7,0-4.06A1.19,1.19,0,0,1,24,38.84c1.38,0,2.77,0,4.16,0a1.22,1.22,0,0,1,1.27,1.35C29.44,40.85,29.43,41.51,29.43,42.17Z"/></g></g></g></svg>